# xmcd
#
# Track frame offsets: 
#        150
#        15533
#        30831
#        45261
#        60253
#        74274
#        88394
#        105000
#        119263
#        135258
#        147615
#        163309
#        181973
#        195508
#        207853
#        220839
#        236431
#
# Disc length: 3320 seconds
#
# Revision: 0
# Processed by: cddbd v1.5.2PL0 Copyright (c) Steve Scherf et al.
# Submitted via: ExactAudioCopy v1.1
#
DISCID=dc0cf611
DTITLE=Various Artist - De Ultieme Feesten Als De Beesten Top 100 2019 - CD 4
DYEAR=2019
DGENRE=Pop-Folk
TTITLE0=Gebroeders Ko - Schatje, Mag Ik Je Foto?
TTITLE1=Cooldown Café Feat. DJ Stefan - Hey Baby (Uhh Ahh)
TTITLE2=Vieze Jack - Brandweerman Jack
TTITLE3=De Stoempers - Vluggertje
TTITLE4=DJ Fetti - Hoelapaloe
TTITLE5=2 Mega - Super!
TTITLE6=Jo Vally - Mooi Is Het Leven
TTITLE7=Bart Van Den Bossche - Ga Met Me Mee (Jij Bent De Zon)
TTITLE8=Huub Hangop - Toeter (DJ Maurice Remix)
TTITLE9=DJ Maurice - Wo Sind Die Handjes!
TTITLE10=De Antennes - Broek Af (Anonymous Remix)
TTITLE11=Sam Gooris - Laat Het Gras Maar Groeien
TTITLE12=Paul Bruna - Jij Bent De Top
TTITLE13=Johan Veugelers - Ruitenwisser
TTITLE14=2 Fabiola Feat. Loredana - She's After My Piano
TTITLE15=Gebroeders Ko Feat. Walter and Hüber - Wunderbar
TTITLE16=DJ Maurice Feat. Boldheadz - Tomatenplukkers (Radio Stamper)
EXTD=
EXTT0=
EXTT1=
EXTT2=
EXTT3=
EXTT4=
EXTT5=
EXTT6=
EXTT7=
EXTT8=
EXTT9=
EXTT10=
EXTT11=
EXTT12=
EXTT13=
EXTT14=
EXTT15=
EXTT16=
PLAYORDER=
